<?xml version="1.0" encoding="utf-8"?>
<!-- Generator: Adobe Illustrator 24.0.0, SVG Export Plug-In . SVG Version: 6.00 Build 0)  -->
<svg version="1.1" id="Layer_1" xmlns="http://www.w3.org/2000/svg" xmlns:xlink="http://www.w3.org/1999/xlink" x="0px" y="0px"
	 viewBox="0 0 295.1 97.7" style="enable-background:new 0 0 295.1 97.7;" xml:space="preserve">
<style type="text/css">
	.st0{fill:#FFFFFF;}
</style>
<g>
	<path class="st0" d="M73.7,42.6l3.7,18.2h0.1l3.7-18.2h7.7v25.7h-4.8V47.8H84l-4.6,20.5h-4l-4.6-20.5h-0.1v20.5H66V42.6H73.7z"/>
	<path class="st0" d="M92.8,42.6H98v25.7h-5.2V42.6z"/>
	<path class="st0" d="M101.9,42.6h5.2v21.5h9.2v4.3h-14.4C101.9,68.4,101.9,42.6,101.9,42.6z"/>
	<path class="st0" d="M132.9,46.8h-9.2v6.1h8.7v4.3h-8.7v6.9h9.6v4.3h-14.7V42.6H133v4.2H132.9z"/>
	<path class="st0" d="M140.1,61c0,0.6,0,1.1,0.1,1.6s0.3,0.9,0.5,1.2c0.3,0.3,0.6,0.6,1.1,0.8c0.4,0.2,1,0.3,1.7,0.3
		c0.8,0,1.5-0.3,2.1-0.8s1-1.3,1-2.4c0-0.6-0.1-1.1-0.2-1.5c-0.2-0.4-0.4-0.8-0.8-1.1c-0.4-0.3-0.8-0.6-1.4-0.9
		c-0.6-0.3-1.3-0.6-2.2-0.8c-1.2-0.4-2.2-0.8-3-1.3s-1.5-1-2.1-1.6s-1-1.3-1.2-2.1c-0.3-0.8-0.4-1.7-0.4-2.8c0-2.5,0.7-4.4,2.1-5.7
		c1.4-1.2,3.4-1.9,5.8-1.9c1.2,0,2.2,0.1,3.2,0.4s1.8,0.7,2.5,1.2c0.7,0.6,1.3,1.3,1.7,2.2s0.6,1.9,0.6,3.2v0.7h-5
		c0-1.2-0.2-2.2-0.6-2.8c-0.4-0.7-1.2-1-2.2-1c-0.6,0-1.1,0.1-1.4,0.3s-0.7,0.4-0.9,0.7s-0.4,0.6-0.5,1s-0.1,0.7-0.1,1.1
		c0,0.8,0.2,1.5,0.5,2s1.1,1,2.2,1.5l4,1.7c1,0.4,1.8,0.9,2.4,1.4s1.1,1,1.5,1.5s0.6,1.1,0.8,1.8c0.1,0.6,0.2,1.4,0.2,2.2
		c0,2.7-0.8,4.7-2.4,5.9c-1.6,1.2-3.8,1.9-6.6,1.9c-2.9,0-5-0.6-6.3-1.9s-1.9-3.1-1.9-5.5v-1h5.2L140.1,61L140.1,61z"/>
	<path class="st0" d="M172,42.6c1.8,0,3.3,0.3,4.4,0.9c1.1,0.6,2,1.4,2.6,2.5s1,2.4,1.2,3.9s0.3,3.3,0.3,5.2c0,2.3-0.1,4.2-0.4,5.9
		c-0.3,1.7-0.8,3-1.4,4.1c-0.7,1.1-1.6,1.9-2.7,2.4c-1.1,0.5-2.6,0.8-4.3,0.8h-8.2V42.6H172z M171,64.5c0.9,0,1.6-0.2,2.2-0.5
		c0.6-0.3,1-0.8,1.3-1.6c0.3-0.7,0.5-1.7,0.6-2.8c0.1-1.2,0.2-2.6,0.2-4.4c0-1.5,0-2.8-0.1-3.9c-0.1-1.1-0.3-2-0.6-2.8
		c-0.3-0.7-0.7-1.3-1.3-1.7s-1.4-0.6-2.4-0.6h-2.2v18.1h2.3V64.5z"/>
	<path class="st0" d="M195.4,42.6l6.8,25.7h-5.4l-1.2-5.4h-6.9l-1.2,5.4h-5.4l6.8-25.7C188.9,42.6,195.4,42.6,195.4,42.6z
		 M194.7,58.6L192.2,47h-0.1l-2.5,11.6H194.7z"/>
	<path class="st0" d="M210.8,61.6h0.1l3.8-19h5.4l-5.9,25.7h-6.7l-5.9-25.7h5.6L210.8,61.6z"/>
	<path class="st0" d="M222.2,42.6h5.2v25.7h-5.2V42.6z"/>
	<path class="st0" d="M235.5,61c0,0.6,0,1.1,0.1,1.6s0.3,0.9,0.5,1.2c0.3,0.3,0.6,0.6,1.1,0.8c0.4,0.2,1,0.3,1.7,0.3
		c0.8,0,1.5-0.3,2.1-0.8s1-1.3,1-2.4c0-0.6-0.1-1.1-0.2-1.5c-0.2-0.4-0.4-0.8-0.8-1.1s-0.8-0.6-1.4-0.9c-0.6-0.3-1.3-0.6-2.2-0.8
		c-1.2-0.4-2.2-0.8-3-1.3s-1.5-1-2.1-1.6s-1-1.3-1.2-2.1c-0.3-0.8-0.4-1.7-0.4-2.8c0-2.5,0.7-4.4,2.1-5.7c1.4-1.2,3.4-1.9,5.8-1.9
		c1.2,0,2.2,0.1,3.2,0.4s1.8,0.7,2.5,1.2c0.7,0.6,1.3,1.3,1.7,2.2s0.6,1.9,0.6,3.2v0.7h-5c0-1.2-0.2-2.2-0.6-2.8
		c-0.4-0.7-1.2-1-2.2-1c-0.6,0-1.1,0.1-1.4,0.3c-0.4,0.2-0.7,0.4-0.9,0.7s-0.4,0.6-0.5,1s-0.1,0.7-0.1,1.1c0,0.8,0.2,1.5,0.5,2
		s1.1,1,2.2,1.5l4,1.7c1,0.4,1.8,0.9,2.4,1.4c0.6,0.5,1.1,1,1.5,1.5s0.6,1.1,0.8,1.8c0.1,0.6,0.2,1.4,0.2,2.2c0,2.7-0.8,4.7-2.4,5.9
		c-1.6,1.2-3.8,1.9-6.6,1.9c-2.9,0-5-0.6-6.3-1.9s-1.9-3.1-1.9-5.5v-1h5.2L235.5,61L235.5,61z"/>
</g>
<g>
	<g>
		<path class="st0" d="M51.4,9.6c1.1,3.5-1.1,13.5-2.3,15.2l0.5,0.5l-9.2,9.3c0,0,0,0,0,0c0,0,0,0,0,0l-3.9,3.9l-2-2l0.2-0.2
			c0.2-0.2,0.1-0.6-0.2-1c-0.3-0.3-0.8-0.4-1-0.2l-2.2,2.2c-0.2,0.2-0.1,0.6,0.2,1c0.3,0.3,0.8,0.4,1,0.2l0.2-0.2l2,2L33,41.9l-2-2
			l0.2-0.2c0.2-0.2,0.1-0.6-0.2-1c-0.3-0.3-0.8-0.4-1-0.2l-2.2,2.2c-0.2,0.2-0.1,0.6,0.2,1c0.3,0.3,0.8,0.4,1,0.2l0.2-0.2l2,2
			l-1.5,1.5l-2-2l0.2-0.2c0.2-0.2,0.1-0.6-0.2-1c-0.3-0.3-0.8-0.4-1-0.2L24.6,44c-0.2,0.2-0.1,0.6,0.2,1c0.3,0.3,0.8,0.4,1,0.2
			l0.2-0.2l2,2L25,50c-0.1,0.1-0.2,0.2-0.3,0.3c-0.1,0.1-0.2,0.2-0.3,0.3c-0.1,0.1-0.2,0.3-0.4,0.4l0,0L13,62
			c-0.3-0.3-0.8-0.2-1.1,0.1c-0.3,0.3-0.3,0.9,0,1.2l3.5,3.5c0.3,0.3,0.9,0.3,1.2,0c0.3-0.3,0.3-0.9,0-1.2l-0.4-0.3l5.3-5.3
			c0.4,2,1.3,4,2.9,5.5c4,4,10.5,4.1,14.6,0.2v0c0,0,0,0,0.1-0.1c0,0,0.1-0.1,0.1-0.1c0.1-0.1,0.2-0.2,0.2-0.3c0,0,0,0,0.1-0.1
			c0.1-0.1,0.2-0.1,0.3-0.2l0-0.1c2.7-2.6,15.3-15.2,15.4-15.3c4.1-4.1,4.1-10.7,0-14.8c-1.5-1.5-3.3-2.4-5.3-2.8l3.1-3.1l0.6,0.6
			c1.9-1.2,11-3.7,14.7-1.9C72.5,27.7,50.3,6.1,51.4,9.6z M49.2,48.7c-2.7,2.8-6.7,6.7-6.7,6.8c-0.1,0.1-0.3,0.3-0.3,0.3l-0.9,1l0,0
			l-1.9,1.8c-1.3,1-3.2,0.9-4.3-0.3c-1.3-1.3-1.3-3.4,0-4.7c0.1-0.1,5.3-5.3,5.3-5.4c0.1,0,0.2-0.2,0.2-0.2l0.5-0.6l0,0l2.2-2.2l0,0
			l0.5-0.5c0,0,0.1-0.1,0.2-0.2c0.1,0,0.1-0.1,0.2-0.1c1.3-1.3,3.4-1.3,4.7,0C50,45.6,50.1,47.4,49.2,48.7z M51.8,37.9
			c2.1,2.1,2.2,5.3,0.5,7.5c-0.2-1.1-0.8-2.1-1.6-2.9c-2.3-2.3-6-2.3-8.4-0.1v0c0,0,0,0,0,0c0,0,0,0-0.1,0.1
			c-0.1,0.1-0.1,0.1-0.1,0.2c0,0,0,0,0,0c-0.1,0-0.1,0.1-0.2,0.1l0,0c-1.5,1.5-8.8,8.7-8.8,8.8c-2.3,2.3-2.3,6.1,0,8.5
			c0.8,0.8,1.9,1.4,3,1.6c-0.1,0.1-0.2,0.1-0.3,0.2c-2.2,2.2-5.9,2.2-8.1,0c-2.2-2.2-2.2-5.9,0-8.1c0,0,0,0,0,0l0.6-0.6l0.9-0.9
			l12.9-12.9l0.9-1l0.6-0.6c0,0,0,0,0,0C45.9,35.7,49.6,35.7,51.8,37.9z"/>
	</g>
</g>
</svg>
