<?xml version="1.0" encoding="utf-8"?>
<!-- Generator: Adobe Illustrator 24.0.0, SVG Export Plug-In . SVG Version: 6.00 Build 0)  -->
<svg version="1.1" id="Layer_1" xmlns="http://www.w3.org/2000/svg" xmlns:xlink="http://www.w3.org/1999/xlink" x="0px" y="0px"
	 viewBox="0 0 295.1 97.7" style="enable-background:new 0 0 295.1 97.7;" xml:space="preserve">
<style type="text/css">
	.st0{fill:#FFFFFF;}
</style>
<g>
	<path class="st0" d="M73.7,42.6l3.7,18.2h0.1l3.7-18.2h7.7v25.7h-4.8V47.8H84l-4.6,20.5h-4l-4.6-20.5h-0.1v20.5H66V42.6H73.7z"/>
	<path class="st0" d="M92.8,42.6H98v25.7h-5.2V42.6z"/>
	<path class="st0" d="M101.9,42.6h5.2v21.5h9.2v4.3h-14.4C101.9,68.4,101.9,42.6,101.9,42.6z"/>
	<path class="st0" d="M132.9,46.8h-9.2v6.1h8.7v4.3h-8.7v6.9h9.6v4.3h-14.7V42.6H133v4.2H132.9z"/>
	<path class="st0" d="M140.1,61c0,0.6,0,1.1,0.1,1.6s0.3,0.9,0.5,1.2c0.3,0.3,0.6,0.6,1.1,0.8c0.4,0.2,1,0.3,1.7,0.3
		c0.8,0,1.5-0.3,2.1-0.8s1-1.3,1-2.4c0-0.6-0.1-1.1-0.2-1.5c-0.2-0.4-0.4-0.8-0.8-1.1c-0.4-0.3-0.8-0.6-1.4-0.9
		c-0.6-0.3-1.3-0.6-2.2-0.8c-1.2-0.4-2.2-0.8-3-1.3s-1.5-1-2.1-1.6s-1-1.3-1.2-2.1c-0.3-0.8-0.4-1.7-0.4-2.8c0-2.5,0.7-4.4,2.1-5.7
		c1.4-1.2,3.4-1.9,5.8-1.9c1.2,0,2.2,0.1,3.2,0.4s1.8,0.7,2.5,1.2c0.7,0.6,1.3,1.3,1.7,2.2s0.6,1.9,0.6,3.2v0.7h-5
		c0-1.2-0.2-2.2-0.6-2.8c-0.4-0.7-1.2-1-2.2-1c-0.6,0-1.1,0.1-1.4,0.3s-0.7,0.4-0.9,0.7s-0.4,0.6-0.5,1s-0.1,0.7-0.1,1.1
		c0,0.8,0.2,1.5,0.5,2s1.1,1,2.2,1.5l4,1.7c1,0.4,1.8,0.9,2.4,1.4s1.1,1,1.5,1.5s0.6,1.1,0.8,1.8c0.1,0.6,0.2,1.4,0.2,2.2
		c0,2.7-0.8,4.7-2.4,5.9c-1.6,1.2-3.8,1.9-6.6,1.9c-2.9,0-5-0.6-6.3-1.9s-1.9-3.1-1.9-5.5v-1h5.2L140.1,61L140.1,61z"/>
	<path class="st0" d="M172,42.6c1.8,0,3.3,0.3,4.4,0.9c1.1,0.6,2,1.4,2.6,2.5s1,2.4,1.2,3.9s0.3,3.3,0.3,5.2c0,2.3-0.1,4.2-0.4,5.9
		c-0.3,1.7-0.8,3-1.4,4.1c-0.7,1.1-1.6,1.9-2.7,2.4c-1.1,0.5-2.6,0.8-4.3,0.8h-8.2V42.6H172z M171,64.5c0.9,0,1.6-0.2,2.2-0.5
		c0.6-0.3,1-0.8,1.3-1.6c0.3-0.7,0.5-1.7,0.6-2.8c0.1-1.2,0.2-2.6,0.2-4.4c0-1.5,0-2.8-0.1-3.9c-0.1-1.1-0.3-2-0.6-2.8
		c-0.3-0.7-0.7-1.3-1.3-1.7s-1.4-0.6-2.4-0.6h-2.2v18.1h2.3V64.5z"/>
	<path class="st0" d="M195.4,42.6l6.8,25.7h-5.4l-1.2-5.4h-6.9l-1.2,5.4h-5.4l6.8-25.7C188.9,42.6,195.4,42.6,195.4,42.6z
		 M194.7,58.6L192.2,47h-0.1l-2.5,11.6H194.7z"/>
	<path class="st0" d="M210.8,61.6h0.1l3.8-19h5.4l-5.9,25.7h-6.7l-5.9-25.7h5.6L210.8,61.6z"/>
	<path class="st0" d="M222.2,42.6h5.2v25.7h-5.2V42.6z"/>
	<path class="st0" d="M235.5,61c0,0.6,0,1.1,0.1,1.6s0.3,0.9,0.5,1.2c0.3,0.3,0.6,0.6,1.1,0.8c0.4,0.2,1,0.3,1.7,0.3
		c0.8,0,1.5-0.3,2.1-0.8s1-1.3,1-2.4c0-0.6-0.1-1.1-0.2-1.5c-0.2-0.4-0.4-0.8-0.8-1.1s-0.8-0.6-1.4-0.9c-0.6-0.3-1.3-0.6-2.2-0.8
		c-1.2-0.4-2.2-0.8-3-1.3s-1.5-1-2.1-1.6s-1-1.3-1.2-2.1c-0.3-0.8-0.4-1.7-0.4-2.8c0-2.5,0.7-4.4,2.1-5.7c1.4-1.2,3.4-1.9,5.8-1.9
		c1.2,0,2.2,0.1,3.2,0.4s1.8,0.7,2.5,1.2c0.7,0.6,1.3,1.3,1.7,2.2s0.6,1.9,0.6,3.2v0.7h-5c0-1.2-0.2-2.2-0.6-2.8
		c-0.4-0.7-1.2-1-2.2-1c-0.6,0-1.1,0.1-1.4,0.3c-0.4,0.2-0.7,0.4-0.9,0.7s-0.4,0.6-0.5,1s-0.1,0.7-0.1,1.1c0,0.8,0.2,1.5,0.5,2
		s1.1,1,2.2,1.5l4,1.7c1,0.4,1.8,0.9,2.4,1.4c0.6,0.5,1.1,1,1.5,1.5s0.6,1.1,0.8,1.8c0.1,0.6,0.2,1.4,0.2,2.2c0,2.7-0.8,4.7-2.4,5.9
		c-1.6,1.2-3.8,1.9-6.6,1.9c-2.9,0-5-0.6-6.3-1.9s-1.9-3.1-1.9-5.5v-1h5.2L235.5,61L235.5,61z"/>
</g>
<g>
	<g>
		<g>
			<g>
				<path class="st0" d="M43.9,49.7L43.9,49.7c-0.6-0.3-1-0.6-1-0.8l1.1-2.7c0.1-0.2,0.6-0.1,1.2,0.1l0,0c0.6,0.3,1,0.6,1,0.8
					l-1.1,2.7C45.1,50,44.6,49.9,43.9,49.7z"/>
			</g>
			<g>
				<path class="st0" d="M45.9,44.9L45.9,44.9c-0.6-0.3-1-0.6-1-0.8l1.1-2.7c0.1-0.2,0.6-0.1,1.2,0.1l0,0c0.6,0.3,1,0.6,1,0.8
					L47.2,45C47.2,45.2,46.5,45.1,45.9,44.9z"/>
			</g>
			<g>
				<path class="st0" d="M47.9,40L47.9,40c-0.6-0.3-1-0.6-1-0.8l1.1-2.7c0.1-0.2,0.6-0.1,1.2,0.1l0,0c0.6,0.3,1,0.6,1,0.8l-1.1,2.7
					C49.1,40.3,48.5,40.2,47.9,40z"/>
			</g>
			<g>
				<path class="st0" d="M56.2,48.4L56.2,48.4c-0.6-0.2-1.1-0.5-1-0.7l0.8-2.8c0.1-0.2,0.6-0.2,1.2,0l0,0c0.6,0.2,1.1,0.5,1,0.7
					l-0.8,2.8C57.4,48.6,56.9,48.6,56.2,48.4z"/>
			</g>
			<g>
				<path class="st0" d="M57.8,43.4L57.8,43.4c-0.6-0.2-1.1-0.5-1-0.7l0.8-2.8c0.1-0.2,0.6-0.2,1.2,0l0,0c0.6,0.2,1.1,0.5,1,0.7
					L59,43.4C59,43.6,58.4,43.6,57.8,43.4z"/>
			</g>
			<g>
				<path class="st0" d="M50.1,35.2L50.1,35.2c-0.6-0.3-1-0.6-1-0.8l1.1-2.7c0.1-0.2,0.6-0.1,1.2,0.1l0,0c0.6,0.3,1,0.6,1,0.8
					l-1.1,2.7C51.2,35.5,50.7,35.4,50.1,35.2z"/>
			</g>
		</g>
		<path class="st0" d="M61.9,22.6c-2.7,0-4.8,1.8-5.6,4L37.3,73.4c-0.4,1-1.4,1.2-2.4,0.8c-1-0.4-2.3-1.6-1.9-2.5
			c0,0,2.6-7,4.7-12.4c1.4-3.6,1.5-7.6,1.3-10c-0.1-1.4,1.6-1.7,1.6-1.7l-0.1-0.6l-6.1,1.4l-4.3,1l-1.7,0.3l0.1,0.6l0.3-0.1
			c0.8-0.2,2.5,1.4,2.5,3.6c0,0.7-0.1,1.5-0.3,2.5c-1.2,5-2.8,11.3-3.6,13.5c-1.6,4.1,1.2,8.6,5.3,10.2s10.1,0.3,11.7-3.8
			c2.1-5.3,15.1-46.6,16-49.1c0.7-2.1,0.1-2.2,2.8-2.3c2.8-0.1,7.6-0.1,7.6-0.1l0.1-2.1C70.8,22.6,64.6,22.6,61.9,22.6z"/>
		<g>
			<polygon class="st0" points="71.5,22.2 70.3,22.4 70.3,24.7 71.5,25 77.1,24.1 77.1,23.2 			"/>
		</g>
	</g>
</g>
</svg>
